<svg xmlns="http://www.w3.org/2000/svg" xmlns:xlink="http://www.w3.org/1999/xlink" width="97.762" height="97.762" viewBox="0 0 97.762 97.762"><defs><clipPath id="a"><rect width="97.762" height="97.762" fill="#fff"/></clipPath></defs><g clip-path="url(#a)"><path d="M50.1,2.666A47.091,47.091,0,1,0,97.192,49.759,47.146,47.146,0,0,0,50.1,2.666m0,92.392a45.3,45.3,0,1,1,45.3-45.3,45.3,45.3,0,0,1-45.3,45.3" transform="translate(-1.221 -1.079)" fill="#fff"/><path d="M48.881,0A48.881,48.881,0,1,0,97.762,48.881,48.881,48.881,0,0,0,48.881,0m0,96.411A47.738,47.738,0,1,1,96.619,48.68,47.789,47.789,0,0,1,48.883,96.411" fill="#fff"/><path d="M62.753,91.376a44.45,44.45,0,0,1,.179-4.924,43.485,43.485,0,0,1,2.657-11.537,37.865,37.865,0,0,1,2.531-5.343c.5-.851,1.022-1.684,1.6-2.481a18.686,18.686,0,0,1,1.873-2.27c-.718,1.816-1.327,3.626-1.883,5.444q-.126.415-.248.833a4.95,4.95,0,1,1-1.745,7.049c-1.805,1.614-2.735,7.09-2.957,13.05,0,.083-.005.166-.008.249A30.847,30.847,0,0,0,84.1,81.4l-.179-.17a44.462,44.462,0,0,1-3.353-3.606A43.519,43.519,0,0,1,74.29,67.59,37.828,37.828,0,0,1,72.3,62.022c-.251-.952-.468-1.913-.626-2.882a18.636,18.636,0,0,1-.28-2.93c.777,1.792,1.625,3.5,2.518,5.181.135.257.274.511.416.765a4.883,4.883,0,0,1,1.091-1.96,4.952,4.952,0,1,1,2.659,8.179c-.136,2.418,3.078,6.947,7.134,11.318l.17.182a30.775,30.775,0,0,0,6.635-19.125c0-.558-.017-1.113-.046-1.664-.036-.668-.1-1.329-.176-1.986A30.847,30.847,0,0,0,81.749,37.741l-.17.179a44.674,44.674,0,0,1-3.606,3.354,43.507,43.507,0,0,1-10.039,6.28,37.843,37.843,0,0,1-5.566,1.989c-.952.251-1.911.468-2.881.626a18.732,18.732,0,0,1-2.931.282c1.793-.777,3.5-1.627,5.182-2.518q.384-.205.764-.416a4.943,4.943,0,0,1-2.286-8.088,4.949,4.949,0,0,1,8.505,4.338c2.418.135,6.947-3.079,11.318-7.135l.182-.17A30.775,30.775,0,0,0,61.1,29.829c-.559,0-1.114.017-1.666.046,0,.082,0,.164.005.246a44.732,44.732,0,0,1-.177,4.924A43.49,43.49,0,0,1,56.6,46.583a37.9,37.9,0,0,1-2.531,5.343c-.5.849-1.022,1.683-1.594,2.481a18.554,18.554,0,0,1-1.874,2.27c.719-1.816,1.327-3.626,1.885-5.444.083-.277.166-.555.246-.833A4.95,4.95,0,1,1,54.48,43.35c1.805-1.614,2.735-7.091,2.957-13.05,0-.082.006-.165.008-.248A30.847,30.847,0,0,0,38.091,40.1l.179.171a44.716,44.716,0,0,1,3.351,3.6A43.564,43.564,0,0,1,47.9,53.909a37.953,37.953,0,0,1,1.987,5.566c.251.952.468,1.914.625,2.882a18.625,18.625,0,0,1,.283,2.93c-.777-1.792-1.626-3.5-2.518-5.181-.138-.257-.276-.51-.416-.764a4.89,4.89,0,0,1-1.093,1.96,4.951,4.951,0,1,1-2.657-8.179c.136-2.417-3.077-6.945-7.133-11.315l-.171-.183a30.779,30.779,0,0,0-6.631,19.123c0,.558.017,1.113.046,1.664l.246-.005a44.549,44.549,0,0,1,4.921.179,43.467,43.467,0,0,1,11.537,2.657,37.9,37.9,0,0,1,5.343,2.53c.849.5,1.683,1.023,2.48,1.6a18.872,18.872,0,0,1,2.27,1.873c-1.816-.718-3.625-1.326-5.444-1.882-.277-.085-.555-.166-.832-.247A4.951,4.951,0,1,1,43.7,67.365c-1.613-1.805-7.087-2.735-13.046-2.957L30.4,64.4A30.845,30.845,0,0,0,40.444,83.754c.057-.06.113-.12.17-.179a44.53,44.53,0,0,1,3.6-3.351,43.543,43.543,0,0,1,10.038-6.281,38,38,0,0,1,5.565-1.989c.954-.25,1.914-.467,2.882-.626a18.918,18.918,0,0,1,2.93-.282c-1.792.778-3.5,1.626-5.182,2.518q-.384.206-.763.416a4.95,4.95,0,1,1-6.218,3.75c-2.417-.135-6.946,3.078-11.316,7.133l-.183.171A30.776,30.776,0,0,0,61.1,91.668c.558,0,1.111-.016,1.661-.045,0-.082,0-.164-.006-.246m2.416-41.119c1.816.717,3.626,1.326,5.444,1.883.277.083.556.165.833.246A4.95,4.95,0,1,1,78.5,54.133c1.614,1.805,7.09,2.735,13.05,2.958.079.661.143,1.327.179,2a44.454,44.454,0,0,1-4.924-.177,43.558,43.558,0,0,1-11.538-2.657,38.05,38.05,0,0,1-5.341-2.531c-.851-.5-1.685-1.022-2.481-1.6a18.664,18.664,0,0,1-2.27-1.873" transform="translate(-12.214 -12.072)" fill="#fff"/><path d="M140.979,104.19a1.28,1.28,0,1,0,1.279,1.278,1.284,1.284,0,0,0-1.279-1.278" transform="translate(-56.537 -42.168)" fill="#fff"/><path d="M20.256,104.19a1.28,1.28,0,1,0,1.277,1.278,1.28,1.28,0,0,0-1.277-1.278" transform="translate(-7.68 -42.168)" fill="#fff"/><path d="M33.139,119.18l.9-.654-4.256-5.9-3.828,2.762,1.7,2.349L26.041,118.9,23.6,115.522l-.905.653,5.693,7.89.905-.654-2.451-3.4,1.613-1.164,1.8,2.5.906-.653-3.524-4.886,2.017-1.456Z" transform="translate(-9.186 -45.582)" fill="#fff"/><path d="M51.592,136.37l-1.969-1.124-.525.922,1.968,1.123-.389.682,1.114.635,3.64-6.374-1.114-.636Z" transform="translate(-19.871 -53.26)" fill="#fff"/><path d="M42.718,132.135l1.968,1.124-.81,1.42,1.16.664.817-1.432q.44.254,1.539.772t1.68.723l.553-.97a16.423,16.423,0,0,1-1.554-.677q-1.207-.57-1.91-.969l-2.879-1.645Z" transform="translate(-17.289 -53.077)" fill="#fff"/><path d="M47.986,130.766a3.044,3.044,0,0,0,1.954.5,1.564,1.564,0,0,0,1.277-2.2,3.753,3.753,0,0,0-3.39-1.935,1.54,1.54,0,0,0-1.263,2.2,3,3,0,0,0,1.421,1.434m-.254-2.232a.8.8,0,0,1,.541-.321,1.449,1.449,0,0,1,1.028.249,1.5,1.5,0,0,1,.752.767.8.8,0,0,1,0,.632.768.768,0,0,1-.523.293,2,2,0,0,1-1.776-1.014.755.755,0,0,1-.024-.605" transform="translate(-18.788 -51.441)" fill="#fff"/><path d="M43.753,137.773l-1.171-.669L41.4,139.178l6.4,3.65.554-.969-5.224-2.982Z" transform="translate(-16.754 -55.488)" fill="#fff"/><rect width="9.729" height="1.283" transform="matrix(0.188, -0.982, 0.982, 0.188, 43.87, 90.971)" fill="#fff"/><path d="M67.544,142.833q-.964-.112-1.4-.2l.313-1.629a2.674,2.674,0,0,0,1.685-.538A2.2,2.2,0,0,0,69,139.109a2.312,2.312,0,0,0-.454-1.764,2.758,2.758,0,0,0-1.848-1.143,2.869,2.869,0,0,0-2.116.32,2.239,2.239,0,0,0-1.089,1.53,2.193,2.193,0,0,0,.3,1.593,2.676,2.676,0,0,0,1.389,1.117l-.318,1.662-2.714-.522-.212,1.108,3.423.635c.555.091,1.2.182,1.947.273s1.28.148,1.605.171l.213-1.107c-.409-.026-.932-.076-1.575-.15m-2.576-3.562a1.3,1.3,0,0,1,.349-1.813,1.489,1.489,0,0,1,1.172-.182,1.522,1.522,0,0,1,1.036.605,1.287,1.287,0,0,1-.342,1.814,1.8,1.8,0,0,1-2.215-.426" transform="translate(-25.065 -55.095)" fill="#fff"/><path d="M86.88,141.888a5.579,5.579,0,0,0,.511-.686,4.11,4.11,0,0,0,.351-.709,3.219,3.219,0,0,0,.532.487c.179.127.378.261.6.4a5.254,5.254,0,0,0,.855.437,5.621,5.621,0,0,0,.775.257l.643-1.052a4.774,4.774,0,0,1-.958-.326,5.352,5.352,0,0,1-1-.6,3.023,3.023,0,0,1-.726-.856,3.169,3.169,0,0,1-.373-1.13l-.129-.9-1.346.192.13.9a3.639,3.639,0,0,1-.02,1.2,3.1,3.1,0,0,1-.484,1.136,5.255,5.255,0,0,1-.793.946,8.456,8.456,0,0,1-.835.705l1.054.743a7.254,7.254,0,0,0,.584-.485,8.609,8.609,0,0,0,.626-.661" transform="translate(-34.246 -55.532)" fill="#fff"/><path d="M87.733,147.04l.161,1.128,5.932-.851.332,2.321,1.259-.18-.494-3.447Z" transform="translate(-35.507 -59.093)" fill="#fff"/><rect width="1.283" height="5.815" transform="translate(57.326 80.895) rotate(-8.138)" fill="#fff"/><path d="M112.807,141.813l-.961-1.667-1.13.653,1.52,2.632,6.215-3.585-.559-.968Z" transform="translate(-44.808 -56.207)" fill="#fff"/><path d="M117.075,128.712l-1.16.669-1.409-2.442-1.109.641,3.512,6.09,1.112-.641-1.525-2.643,1.158-.669Z" transform="translate(-45.894 -51.374)" fill="#fff"/><path d="M110.183,135.011a5.127,5.127,0,0,0,1.022.088,5.062,5.062,0,0,0,.808-.058l.165-1.219a5.026,5.026,0,0,1-1.02.046,4.618,4.618,0,0,1-1.178-.206,2.734,2.734,0,0,1-1.014-.584,3.8,3.8,0,0,1-.726-.9l-.492-.852-1.176.679.492.853a4.354,4.354,0,0,1,.449,1.1,2.978,2.978,0,0,1,.009,1.291,4.958,4.958,0,0,1-.375,1.206,7.7,7.7,0,0,1-.562,1.019l1.239.333c.121-.19.254-.425.4-.71a5.4,5.4,0,0,0,.368-.921,6.366,6.366,0,0,0,.2-.852,4.308,4.308,0,0,0,.06-.729,4.389,4.389,0,0,0,.653.261,5.491,5.491,0,0,0,.672.16" transform="translate(-43.132 -53.149)" fill="#fff"/><path d="M126.775,118.637a2.139,2.139,0,0,0-.368-1.57l1.3-1.49,1.566,1.366.843-.966-3.856-3.365-.845.966,1.434,1.25-1.332,1.524a2.128,2.128,0,0,0-1.526-.057,2.978,2.978,0,0,0-1.37.9,2.9,2.9,0,0,0-.735,1.8,2.1,2.1,0,0,0,2.494,2.17,2.995,2.995,0,0,0,2.394-2.532m-1.579.807a1.386,1.386,0,0,1-.865.471,1.038,1.038,0,0,1-.881-.234.992.992,0,0,1-.334-.828,1.4,1.4,0,0,1,.356-.914,1.423,1.423,0,0,1,.853-.48,1,1,0,0,1,.868.223,1.042,1.042,0,0,1,.351.842,1.377,1.377,0,0,1-.349.92" transform="translate(-49.329 -45.576)" fill="#fff"/><path d="M132.237,119.734l.76.662-2.959,3.39-.758-.66-.838.957,3.066,2.675,4.638-5.315-3.065-2.676Zm2.25,1.964-2.959,3.389-.673-.588,2.957-3.39Z" transform="translate(-51.983 -48.067)" fill="#fff"/><path d="M40.315,34.5l-2.236-2.213,1.5-1.51a2.83,2.83,0,0,0,.865-1.945,2.4,2.4,0,0,0-.727-1.872,2.347,2.347,0,0,0-1.887-.717,2.908,2.908,0,0,0-1.913.908l-2.386,2.409,5.9,5.84ZM35.25,29.487l1.437-1.452a1.949,1.949,0,0,1,.984-.539,1.183,1.183,0,0,1,1.109.406,1.224,1.224,0,0,1,.424,1.114,1.842,1.842,0,0,1-.511,1l-1.437,1.451Z" transform="translate(-13.569 -10.619)" fill="#fff"/><path d="M50.411,26.966l-1.477-2.973L50.3,23.31l3.552,1.931,1.394-.692L51.584,22.52A2.713,2.713,0,0,0,52.4,21.1a2.3,2.3,0,0,0-.182-1.58,2.154,2.154,0,0,0-1.5-1.2,3.04,3.04,0,0,0-2.1.29l-3.025,1.5,3.682,7.412Zm-3.172-6.383,1.872-.93a1.79,1.79,0,0,1,1.08-.187,1.083,1.083,0,0,1,.823.655,1.163,1.163,0,0,1,0,1.119,1.823,1.823,0,0,1-.814.8l-1.8.893Z" transform="translate(-18.453 -7.385)" fill="#fff"/><path d="M67.261,20.9l-.274-1.116-4.485,1.1-.6-2.458L66.089,17.4l-.271-1.105-4.2,1.022-.544-2.21,4.4-1.082-.29-1.124-5.613,1.382,1.976,8.025Z" transform="translate(-24.11 -5.22)" fill="#fff"/><path d="M75.319,20.073l-.255-5.543,2.157,5.443,1.426-.065,1.658-5.62.256,5.531,1.229-.057-.382-8.291-1.507.069L77.854,18.33,75.18,11.76l-1.507.069.381,8.3Z" transform="translate(-29.817 -4.643)" fill="#fff"/><rect width="8.265" height="1.242" transform="translate(53.584 15.396) rotate(-83.645)" fill="#fff"/><path d="M97.837,21.947a3.258,3.258,0,0,0,2.512-.07,2.615,2.615,0,0,0,1.4-1.619l1.737-5.453-1.205-.385L100.6,19.685a2.3,2.3,0,0,1-.737,1.032,1.7,1.7,0,0,1-1.678.123q-1.106-.353-1.265-1.06a2.407,2.407,0,0,1,.018-1.261l1.679-5.265-1.227-.391-1.739,5.452a2.7,2.7,0,0,0,.187,2.126,3.185,3.185,0,0,0,2,1.506" transform="translate(-38.658 -5.205)" fill="#fff"/><path d="M107.692,26.146l2.9-4.73-1.272,5.715,1.219.746,4.526-3.719-2.894,4.721,1.05.643,4.338-7.077-1.287-.788-5.5,4.468,1.476-6.938-1.287-.788-4.344,7.085Z" transform="translate(-43.149 -7.446)" fill="#fff"/></g></svg>